<svg xmlns="http://www.w3.org/2000/svg" viewBox="0 0 780.0 372.0" font-family="system-ui, sans-serif" font-size="13">
<rect width="780.0" height="372.0" fill="white"/>
<defs><marker id="arr" viewBox="0 0 10 10" refX="10" refY="5" markerWidth="8" markerHeight="8" orient="auto-start-reverse"><path d="M 0 0 L 10 5 L 0 10 z" fill="#555"/></marker></defs>
<text x="390.0" y="24" text-anchor="middle" font-size="15" font-weight="bold">Proposed: Python generates Make (like defaults.py)</text>
<line x1="280.0" y1="84.0" x2="250.0" y2="162.0" stroke="#555" stroke-width="1.5" marker-end="url(#arr)"/>
<text x="271.0" y="119.0" font-size="10" fill="#555" font-style="italic">stdout: Make code</text>
<line x1="500.0" y1="84.0" x2="530.0" y2="162.0" stroke="#1565c0" stroke-width="1.5" marker-end="url(#arr)"/>
<text x="521.0" y="119.0" font-size="10" fill="#1565c0" font-style="italic">--format=json</text>
<line x1="140.0" y1="186.0" x2="140.0" y2="216.0" stroke="#555" stroke-width="1.5" marker-end="url(#arr)"/>
<line x1="140.0" y1="264.0" x2="140.0" y2="294.0" stroke="#555" stroke-width="1.5" marker-end="url(#arr)"/>
<line x1="640.0" y1="186.0" x2="640.0" y2="216.0" stroke="#1565c0" stroke-width="1.5" marker-end="url(#arr)"/>
<rect x="280.0" y="60.0" width="220" height="48" rx="6" fill="#e8f5e9" stroke="#2e7d32" stroke-width="2.5"/>
<text x="390.0" y="80.0" text-anchor="middle" font-weight="bold">config.py</text>
<text x="390.0" y="96.0" text-anchor="middle" font-size="10" fill="#666">source of truth, unit-testable</text>
<rect x="30.0" y="138.0" width="220" height="48" rx="6" fill="#fff3e0" stroke="#e65100" stroke-width="1.5"/>
<text x="140.0" y="158.0" text-anchor="middle" font-weight="bold">config.mk (shim)</text>
<text x="140.0" y="174.0" text-anchor="middle" font-size="10" fill="#666">$(shell python config.py) | $(eval)</text>
<rect x="30.0" y="216.0" width="220" height="48" rx="6" fill="#fff3e0" stroke="#e65100" stroke-width="1.5"/>
<text x="140.0" y="236.0" text-anchor="middle" font-weight="bold">GNU Make</text>
<text x="140.0" y="252.0" text-anchor="middle" font-size="10" fill="#666">Makefile + variables.mk (unchanged)</text>
<rect x="30.0" y="294.0" width="220" height="48" rx="6" fill="#f5f5f5" stroke="#666" stroke-width="1.5"/>
<text x="140.0" y="314.0" text-anchor="middle" font-weight="bold">openroad / yosys / klayout</text>
<text x="140.0" y="330.0" text-anchor="middle" font-size="10" fill="#666">via flow.sh (Make path)</text>
<rect x="530.0" y="138.0" width="220" height="48" rx="6" fill="#e3f2fd" stroke="#1565c0" stroke-width="2.5"/>
<text x="640.0" y="158.0" text-anchor="middle" font-weight="bold">bazel-orfs</text>
<text x="640.0" y="174.0" text-anchor="middle" font-size="10" fill="#666">calls config.py --format=json</text>
<rect x="530.0" y="216.0" width="220" height="48" rx="6" fill="#e3f2fd" stroke="#1565c0" stroke-width="1.5"/>
<text x="640.0" y="236.0" text-anchor="middle" font-weight="bold">openroad / yosys / klayout</text>
<text x="640.0" y="252.0" text-anchor="middle" font-size="10" fill="#666">direct invocation (no Make)</text>
</svg>